<svg width="64" height="64" viewBox="0 0 64 64" fill="none" xmlns="http://www.w3.org/2000/svg">
  <path d="M32 4L56 18V46L32 60L8 46V18L32 4Z" stroke="#3B82F6" stroke-width="2.5" stroke-linejoin="round" fill="none" opacity="0.3"/>
  <path d="M32 10L50 21V43L32 54L14 43V21L32 10Z" stroke="#3B82F6" stroke-width="1.5" stroke-linejoin="round" fill="rgba(59,130,246,0.08)"/>
  <rect x="19" y="28" width="4" height="10" rx="0.5" fill="#06B6D4" opacity="0.8"/>
  <line x1="21" y1="26" x2="21" y2="40" stroke="#06B6D4" stroke-width="1" opacity="0.5"/>
  <rect x="26" y="22" width="4" height="14" rx="0.5" fill="#3B82F6"/>
  <line x1="28" y1="19" x2="28" y2="38" stroke="#3B82F6" stroke-width="1" opacity="0.6"/>
  <rect x="33" y="18" width="4" height="16" rx="0.5" fill="#3B82F6"/>
  <line x1="35" y1="15" x2="35" y2="36" stroke="#3B82F6" stroke-width="1" opacity="0.6"/>
  <rect x="40" y="20" width="4" height="12" rx="0.5" fill="#3B82F6" opacity="0.7"/>
  <line x1="42" y1="18" x2="42" y2="34" stroke="#3B82F6" stroke-width="1" opacity="0.4"/>
  <circle cx="21" cy="44" r="2.5" fill="#06B6D4" opacity="0.9"/>
  <circle cx="35" cy="46" r="2.5" fill="#3B82F6" opacity="0.9"/>
  <circle cx="44" cy="42" r="2.5" fill="#3B82F6" opacity="0.7"/>
  <line x1="21" y1="44" x2="35" y2="46" stroke="#3B82F6" stroke-width="1" opacity="0.3"/>
  <line x1="35" y1="46" x2="44" y2="42" stroke="#3B82F6" stroke-width="1" opacity="0.3"/>
  <path d="M17 38L25 30L32 26L40 22L47 24" stroke="#06B6D4" stroke-width="1.5" stroke-linecap="round" stroke-linejoin="round" fill="none" opacity="0.4"/>
</svg>
